<svg xmlns="http://www.w3.org/2000/svg" width="500" height="499.999988" viewBox="0 0 375 374.999991" version="1.2">
  <defs>
    <clipPath id="a">
      <path d="M108 106h31v29.703125h-31zm0 0"/>
    </clipPath>
    <clipPath id="b">
      <path d="M235.308594 106h31.5v29.703125h-31.5zm0 0"/>
    </clipPath>
    <clipPath id="c">
      <path d="M139.347656 153.777344h33.75v33.75h-33.75zm0 0"/>
    </clipPath>
    <clipPath id="d">
      <path d="M201.585938 153.777344h33.75v33.75h-33.75zm0 0"/>
    </clipPath>
    <clipPath id="e">
      <path d="M123.679688 143.355469h127.5v54.75h-127.5zm0 0"/>
    </clipPath>
  </defs>
  <path d="M187.5 0c-3.070312 0-6.136719.0742188-9.199219.226562-3.066406.148438-6.125.375-9.179687.675782-3.054688.300781-6.097656.675781-9.132813 1.128906-3.035156.449219-6.058593.972656-9.066406 1.570312-3.011719.601563-6.003906 1.273438-8.980469 2.015626-2.976562.746093-5.933594 1.566406-8.871094 2.457031-2.933593.890625-5.847656 1.851562-8.738281 2.886719-2.886719 1.035156-5.75 2.136718-8.585937 3.3125-2.835938 1.171874-5.640625 2.417968-8.414063 3.730468-2.773437 1.308594-5.511719 2.6875-8.21875 4.136719-2.707031 1.445313-5.375 2.957031-8.007812 4.535156-2.632813 1.578125-5.222657 3.21875-7.773438 4.921875-2.554687 1.707032-5.0625 3.472656-7.527343 5.300782-2.464844 1.828124-4.882813 3.714843-7.253907 5.660156-2.371093 1.949218-4.695312 3.953125-6.96875 6.011718-2.273437 2.0625-4.496093 4.175782-6.664062 6.347657-2.171875 2.167969-4.285157 4.390625-6.347657 6.664062-2.058593 2.273438-4.0625 4.597657-6.011718 6.96875-1.945313 2.371094-3.832032 4.789063-5.660156 7.253907-1.828126 2.464843-3.59375 4.972656-5.300782 7.527343-1.703125 2.550781-3.34375 5.140625-4.921875 7.773438-1.578125 2.632812-3.089843 5.300781-4.535156 8.007812-1.449219 2.707031-2.828125 5.445313-4.136719 8.21875-1.3125 2.773438-2.558594 5.578125-3.730468 8.414063-1.175782 2.835937-2.277344 5.699218-3.3125 8.585937-1.035157 2.890625-1.996094 5.804688-2.886719 8.738281-.890625 2.9375-1.710938 5.894532-2.453125 8.871094-.746094 2.976563-1.417969 5.96875-2.019532 8.980469-.597656 3.007813-1.121093 6.03125-1.570312 9.066406-.453125 3.035157-.828125 6.078125-1.128906 9.132813-.300782 3.054687-.527344 6.113281-.675782 9.179687C.0742188 181.363281 0 184.429688 0 187.5c0 3.070312.0742188 6.136719.226562 9.199219.148438 3.066406.375 6.125.675782 9.179687.300781 3.054688.675781 6.097656 1.128906 9.132813.449219 3.035156.972656 6.058593 1.570312 9.066406.601563 3.011719 1.273438 6.003906 2.019532 8.980469.742187 2.976562 1.5625 5.933594 2.453125 8.871094.890625 2.933593 1.851562 5.847656 2.886719 8.738281 1.035156 2.886719 2.136718 5.75 3.3125 8.585937 1.171874 2.835938 2.417968 5.636719 3.730468 8.414063 1.308594 2.773437 2.6875 5.511719 4.136719 8.21875 1.445313 2.707031 2.957031 5.375 4.535156 8.007812 1.578125 2.632813 3.21875 5.222657 4.921875 7.773438 1.707032 2.554687 3.472656 5.0625 5.300782 7.527343 1.828124 2.464844 3.714843 4.882813 5.660156 7.253907 1.949218 2.371093 3.953125 4.695312 6.011718 6.96875 2.0625 2.273437 4.175782 4.496093 6.347657 6.664062 2.167969 2.171875 4.390625 4.285157 6.664062 6.347657 2.273438 2.058593 4.597657 4.0625 6.96875 6.007812 2.371094 1.949219 4.789063 3.835938 7.253907 5.664062 2.464843 1.828126 4.972656 3.59375 7.527343 5.300782 2.550781 1.703125 5.140625 3.34375 7.773438 4.921875 2.632812 1.578125 5.300781 3.089843 8.007812 4.535156 2.707031 1.449219 5.445313 2.828125 8.21875 4.136719 2.773438 1.3125 5.578125 2.558594 8.414063 3.730468 2.835937 1.175782 5.699218 2.277344 8.585937 3.3125 2.890625 1.035157 5.804688 1.996094 8.738281 2.886719 2.9375.890625 5.894532 1.710938 8.871094 2.453125 2.976563.746094 5.96875 1.417969 8.980469 2.019532 3.007813.597656 6.03125 1.121093 9.066406 1.570312 3.035157.453125 6.078125.828125 9.132813 1.128906 3.054687.300782 6.113281.527344 9.179687.675782 3.0625.152343 6.128907.226562 9.199219.226562 3.070312 0 6.136719-.074219 9.199219-.226562 3.066406-.148438 6.125-.375 9.179687-.675782 3.054688-.300781 6.097656-.675781 9.132813-1.128906 3.035156-.449219 6.058593-.972656 9.066406-1.570312 3.011719-.601563 6.003906-1.273438 8.980469-2.019532 2.976562-.742187 5.933594-1.5625 8.871094-2.453125 2.933593-.890625 5.847656-1.851562 8.738281-2.886719 2.886719-1.035156 5.75-2.136718 8.585937-3.3125 2.835938-1.171874 5.636719-2.417968 8.414063-3.730468 2.773437-1.308594 5.511719-2.6875 8.21875-4.136719 2.707031-1.445313 5.375-2.957031 8.007812-4.535156 2.632813-1.578125 5.222657-3.21875 7.773438-4.921875 2.554687-1.707032 5.0625-3.472656 7.527343-5.300782 2.464844-1.828124 4.882813-3.714843 7.253907-5.664062 2.371093-1.945312 4.695312-3.949219 6.96875-6.007812 2.273437-2.0625 4.496093-4.175782 6.664062-6.347657 2.171875-2.167969 4.285157-4.390625 6.347657-6.664062 2.058593-2.273438 4.0625-4.597657 6.007812-6.96875 1.949219-2.371094 3.835938-4.789063 5.664062-7.253907 1.828126-2.464843 3.59375-4.972656 5.300782-7.527343 1.703125-2.550781 3.34375-5.140625 4.921875-7.773438 1.578125-2.632812 3.089843-5.300781 4.535156-8.007812 1.449219-2.707031 2.828125-5.445313 4.136719-8.21875 1.3125-2.777344 2.558594-5.578125 3.730468-8.414063 1.175782-2.835937 2.277344-5.699218 3.3125-8.585937 1.035157-2.890625 1.996094-5.804688 2.886719-8.738281.890625-2.9375 1.710938-5.894532 2.453125-8.871094.746094-2.976563 1.417969-5.96875 2.019532-8.980469.597656-3.007813 1.121093-6.03125 1.570312-9.066406.453125-3.035157.828125-6.078125 1.128906-9.132813.300782-3.054687.527344-6.113281.675782-9.179687.152343-3.0625.226562-6.128907.226562-9.199219 0-3.070312-.074219-6.136719-.226562-9.199219-.148438-3.066406-.375-6.125-.675782-9.179687-.300781-3.054688-.675781-6.097656-1.128906-9.132813-.449219-3.035156-.972656-6.058593-1.570312-9.066406-.601563-3.011719-1.273438-6.003906-2.019532-8.980469-.742187-2.976562-1.5625-5.933594-2.453125-8.871094-.890625-2.933593-1.851562-5.847656-2.886719-8.738281-1.035156-2.886719-2.136718-5.75-3.3125-8.585937-1.171874-2.835938-2.417968-5.640625-3.730468-8.414063-1.308594-2.773437-2.6875-5.511719-4.136719-8.21875-1.445313-2.707031-2.957031-5.375-4.535156-8.007812-1.578125-2.632813-3.21875-5.222657-4.921875-7.773438-1.707032-2.554687-3.472656-5.0625-5.300782-7.527343-1.828124-2.464844-3.714843-4.882813-5.664062-7.253907-1.945312-2.371093-3.949219-4.695312-6.007812-6.96875-2.0625-2.273437-4.175782-4.496093-6.347657-6.664062-2.167969-2.171875-4.390625-4.285157-6.664062-6.347657-2.273438-2.058593-4.597657-4.0625-6.96875-6.011718-2.371094-1.945313-4.789063-3.832032-7.253907-5.660156-2.464843-1.828126-4.972656-3.59375-7.527343-5.300782-2.550781-1.703125-5.140625-3.34375-7.773438-4.921875-2.632812-1.578125-5.300781-3.089843-8.007812-4.535156-2.707031-1.449219-5.445313-2.828125-8.21875-4.136719-2.777344-1.3125-5.578125-2.558594-8.414063-3.730468-2.835937-1.175782-5.699218-2.277344-8.585937-3.3125-2.890625-1.035157-5.804688-1.996094-8.738281-2.886719-2.9375-.890625-5.894532-1.710938-8.871094-2.457031-2.976563-.742188-5.96875-1.414063-8.980469-2.015626-3.007813-.597656-6.03125-1.121093-9.066406-1.570312-3.035157-.453125-6.078125-.828125-9.132813-1.128906-3.054687-.300782-6.113281-.527344-9.179687-.675782C193.636719.0742188 190.570312 0 187.5 0zm0 0" fill="#113240"/>
  <path d="M123.71875 121.875h127.507812v89.972656H123.71875zm0 0" fill="#5eb1d4"/>
  <path d="M187.5 147.886719c-1.042969 0-2.085938.027343-3.128906.078125-1.042969.050781-2.082032.125-3.121094.230468-1.039062.101563-2.074219.230469-3.109375.382813-1.03125.152344-2.058594.332031-3.082031.535156-1.027344.203125-2.042969.429688-3.054688.683594-1.015625.253906-2.019531.535156-3.019531.835937-.996094.304688-1.988281.628907-2.972656.980469-.980469.355469-1.957031.730469-2.917969 1.128907-.964844.398437-1.921875.820312-2.863281 1.269531-.945313.445312-1.875.914062-2.796875 1.40625-.921875.492187-1.828125 1.007812-2.722656 1.542969-.894532.535156-1.777344 1.09375-2.644532 1.675781-.871094.578125-1.722656 1.179687-2.5625 1.800781-.835937.621094-1.660156 1.265625-2.464844 1.925781-.808593.664063-1.597656 1.34375-2.371093 2.046875-.773438.699219-1.53125 1.417969-2.269531 2.15625-.738282.738282-1.457032 1.496094-2.15625 2.269532-.703126.773437-1.382813 1.5625-2.046876 2.371093-.660156.804688-1.304687 1.628907-1.925781 2.464844-.621093.839844-1.222656 1.691406-1.800781 2.5625-.582031.867187-1.140625 1.75-1.675781 2.644531-.535157.894532-1.050781 1.800782-1.542969 2.722656-.492188.921876-.960938 1.851563-1.40625 2.796876-.449219.941406-.871094 1.898437-1.269531 2.863281-.398438.960937-.777344 1.9375-1.128907 2.917969-.351562.984374-.675781 1.976562-.980468 2.972656-.300782 1-.582032 2.003906-.835938 3.019531-.253906 1.011719-.480468 2.027344-.683594 3.054687-.203124 1.023438-.382812 2.050782-.535156 3.082032-.152344 1.035156-.28125 2.070312-.382812 3.109375-.105469 1.039062-.179688 2.078125-.230469 3.121093-.050781 1.042969-.078125 2.085938-.078125 3.128907 0 1.042969.027344 2.085937.078125 3.128906.050781 1.042969.125 2.085937.230469 3.121094.101562 1.039062.230468 2.078125.382812 3.109375.152344 1.03125.332032 2.058594.535156 3.082031.203126 1.027344.429688 2.042969.683594 3.054687.253906 1.015626.535156 2.019532.835938 3.019532.304687.996094.628906 1.988281.980468 2.972656.351563.980469.730469 1.957031 1.128907 2.917969.398437.964843.820312 1.921875 1.269531 2.863281.445312.945312.914062 1.875 1.40625 2.796875.492188.921875 1.007812 1.828125 1.542969 2.722656.535156.894531 1.09375 1.777344 1.675781 2.644531.578125.871094 1.179688 1.722657 1.800781 2.5625.621094.835938 1.265625 1.660157 1.925781 2.464844.664063.808594 1.34375 1.597656 2.046876 2.371094.699218.773438 1.417968 1.53125 2.15625 2.269531.738281.738281 1.496093 1.457031 2.269531 2.15625.773437.703125 1.5625 1.382813 2.371093 2.046875.804688.660156 1.628907 1.304688 2.464844 1.925782.839844.621093 1.691406 1.222656 2.5625 1.800781.867188.582031 1.75 1.140625 2.644532 1.675781.894531.535156 1.800781 1.050781 2.722656 1.542969.921875.492187 1.851562.960937 2.796875 1.40625.941406.449219 1.898437.871093 2.863281 1.269531.960938.398438 1.9375.777344 2.917969 1.128906.984375.351563 1.976562.675782 2.972656.980469 1 .304687 2.003906.582031 3.019531.835937 1.011719.253907 2.027344.480469 3.054688.683594 1.023437.203125 2.050781.382813 3.082031.535156 1.035156.152344 2.070313.28125 3.109375.382813 1.039062.105469 2.078125.179687 3.121094.230469 1.042968.050781 2.085937.078125 3.128906.078125 1.042969 0 2.085938-.027344 3.128906-.078125 1.042969-.050782 2.082032-.125 3.121094-.230469 1.039062-.101563 2.074219-.230469 3.109375-.382813 1.03125-.152343 2.058594-.332031 3.082031-.535156 1.027344-.203125 2.042969-.429687 3.054688-.683594 1.015625-.253906 2.019531-.53125 3.019531-.835937.996094-.304687 1.988281-.628906 2.972656-.980469.980469-.351562 1.957031-.730468 2.917969-1.128906.964844-.398438 1.921875-.820312 2.863281-1.269531.945313-.445313 1.875-.914063 2.796875-1.40625.921875-.492188 1.828125-1.007813 2.722656-1.542969.894532-.535156 1.777344-1.09375 2.644532-1.675781.871094-.578125 1.722656-1.179688 2.5625-1.800781.835937-.621094 1.660156-1.265626 2.464844-1.925782.808593-.664062 1.597656-1.34375 2.371093-2.046875.773438-.699219 1.53125-1.417969 2.269531-2.15625.738282-.738281 1.457032-1.496093 2.15625-2.269531.703126-.773438 1.382813-1.5625 2.046876-2.371094.660156-.804687 1.304687-1.628906 1.925781-2.464844.621093-.839843 1.222656-1.691406 1.800781-2.5625.582031-.867187 1.140625-1.75 1.675781-2.644531.535157-.894531 1.050781-1.800781 1.542969-2.722656.492188-.921875.960938-1.851563 1.40625-2.796875.449219-.941406.871094-1.898438 1.269531-2.863281.398438-.960938.777344-1.9375 1.128907-2.917969.351562-.984375.675781-1.976562.980468-2.972656.300782-1 .582032-2.003906.835938-3.019532.253906-1.011718.480468-2.027343.683594-3.054687.203124-1.023437.382812-2.050781.535156-3.082031.152344-1.03125.28125-2.070313.382812-3.109375.105469-1.035157.179688-2.078125.230469-3.121094.050781-1.042969.078125-2.085937.078125-3.128906 0-1.042969-.027344-2.085938-.078125-3.128907-.050781-1.042968-.125-2.082031-.230469-3.121093-.101562-1.039063-.230468-2.074219-.382812-3.109375-.152344-1.03125-.332032-2.058594-.535156-3.082032-.203126-1.027343-.429688-2.042968-.683594-3.054687-.253906-1.015625-.535156-2.019531-.835938-3.019531-.304687-.996094-.628906-1.988282-.980468-2.972656-.355469-.980469-.730469-1.957032-1.128907-2.917969-.398437-.964844-.820312-1.921875-1.269531-2.863281-.445312-.945313-.914062-1.875-1.40625-2.796876-.492188-.921874-1.007812-1.828124-1.542969-2.722656-.535156-.894531-1.09375-1.777344-1.675781-2.644531-.578125-.871094-1.179688-1.722656-1.800781-2.5625-.621094-.835937-1.265625-1.660156-1.925781-2.464844-.664063-.808593-1.34375-1.597656-2.046876-2.371093-.699218-.773438-1.417968-1.53125-2.15625-2.269532-.738281-.738281-1.496093-1.457031-2.269531-2.15625-.773437-.703125-1.5625-1.382812-2.371093-2.046875-.804688-.660156-1.628907-1.304687-2.464844-1.925781-.839844-.621094-1.691406-1.222656-2.5625-1.800781-.867188-.582031-1.75-1.140625-2.644532-1.675781-.894531-.535157-1.800781-1.050782-2.722656-1.542969-.921875-.492188-1.851562-.960938-2.796875-1.40625-.941406-.449219-1.898437-.871094-2.863281-1.269531-.960938-.398438-1.9375-.773438-2.917969-1.128907-.984375-.351562-1.976562-.675781-2.972656-.980469-1-.300781-2.003906-.582031-3.019531-.835937-1.011719-.253906-2.027344-.480469-3.054688-.683594-1.023437-.203125-2.050781-.382812-3.082031-.535156-1.035156-.152344-2.070313-.28125-3.109375-.382813-1.039062-.105468-2.078125-.179687-3.121094-.230468-1.042968-.050782-2.085937-.078125-3.128906-.078125zm0 0M123.71875 99.550781c-.730469 0-1.460938.035157-2.1875.105469-.726562.074219-1.449219.179688-2.167969.324219-.71875.140625-1.425781.320312-2.125.53125-.699219.210937-1.386719.457031-2.0625.738281-.675781.28125-1.335937.59375-1.980469.9375-.644531.34375-1.273437.71875-1.878906 1.125-.609375.40625-1.195312.84375-1.761718 1.304688-.5625.464843-1.105469.957031-1.621094 1.472656-.519532.515625-1.007813 1.058594-1.472656 1.621094-.464844.566406-.898438 1.152343-1.304688 1.761718-.40625.609375-.78125 1.234375-1.125 1.878906-.347656.644532-.65625 1.304688-.9375 1.980469s-.527344 1.363281-.738281 2.0625c-.210938.699219-.390625 1.410157-.53125 2.125-.144531.71875-.25 1.441407-.324219 2.167969-.070312.726562-.105469 1.457031-.105469 2.1875s.035157 1.460938.105469 2.1875c.074219.730469.179688 1.449219.324219 2.167969.140625.71875.320312 1.425781.53125 2.125.210937.699219.457031 1.386719.738281 2.0625.28125.675781.589844 1.335937.9375 1.980469.34375.644531.71875 1.273437 1.125 1.878906.40625.609375.839844 1.195312 1.304688 1.761718.464843.5625.953124 1.105469 1.472656 1.621094.515625.519532 1.058594 1.007813 1.621094 1.472656.566406.464844 1.152343.898438 1.761718 1.304688.605469.40625 1.234375.78125 1.878906 1.125.644532.347656 1.304688.660156 1.980469.9375.675781.28125 1.363281.527344 2.0625.738281.699219.210938 1.40625.390625 2.125.53125.71875.144531 1.441407.25 2.167969.324219.726562.070312 1.457031.105469 2.1875.105469s1.460938-.035157 2.1875-.105469c.726562-.074219 1.449219-.179688 2.167969-.324219.71875-.140625 1.425781-.320312 2.125-.53125.699219-.210937 1.386719-.457031 2.0625-.738281.675781-.277344 1.335937-.589844 1.980469-.9375.644531-.34375 1.273437-.71875 1.878906-1.125.609375-.40625 1.195312-.839844 1.761718-1.304688.5625-.464843 1.105469-.953124 1.621094-1.472656.519532-.515625 1.007813-1.058594 1.472656-1.621094.464844-.566406.898438-1.152343 1.304688-1.761718.40625-.605469.78125-1.234375 1.125-1.878906.347656-.644532.65625-1.304688.9375-1.980469s.527344-1.363281.738281-2.0625c.210938-.699219.390625-1.40625.53125-2.125.144531-.71875.25-1.4375.324219-2.167969.070312-.726562.105469-1.457031.105469-2.1875s-.035157-1.460938-.105469-2.1875c-.074219-.726562-.179688-1.449219-.324219-2.167969-.140625-.714843-.320312-1.425781-.53125-2.125-.210937-.699219-.457031-1.386719-.738281-2.0625-.28125-.675781-.589844-1.335937-.9375-1.980469-.34375-.644531-.71875-1.269531-1.125-1.878906s-.839844-1.195312-1.304688-1.761718c-.464843-.5625-.953124-1.105469-1.472656-1.621094-.515625-.515625-1.058594-1.007813-1.621094-1.472656-.566406-.460938-1.152343-.898438-1.761718-1.304688-.605469-.40625-1.234375-.78125-1.878906-1.125-.644532-.34375-1.304688-.65625-1.980469-.9375s-1.363281-.527344-2.0625-.738281c-.699219-.210938-1.40625-.390625-2.125-.53125-.71875-.144531-1.441407-.25-2.167969-.324219-.726562-.070312-1.457031-.105469-2.1875-.105469zm0 0M251.28125 99.550781c-.730469 0-1.460938.035157-2.1875.105469-.726562.074219-1.449219.179688-2.167969.324219-.71875.140625-1.425781.320312-2.125.53125-.699219.210937-1.386719.457031-2.0625.738281-.675781.28125-1.335937.59375-1.980469.9375-.644531.34375-1.273437.71875-1.878906 1.125-.609375.40625-1.195312.84375-1.761718 1.304688-.5625.464843-1.105469.957031-1.621094 1.472656-.519532.515625-1.007813 1.058594-1.472656 1.621094-.464844.566406-.898438 1.152343-1.304688 1.761718-.40625.609375-.78125 1.234375-1.125 1.878906-.347656.644532-.65625 1.304688-.9375 1.980469s-.527344 1.363281-.738281 2.0625c-.210938.699219-.390625 1.410157-.53125 2.125-.144531.71875-.25 1.441407-.324219 2.167969-.070312.726562-.105469 1.457031-.105469 2.1875s.035157 1.460938.105469 2.1875c.074219.730469.179688 1.449219.324219 2.167969.140625.71875.320312 1.425781.53125 2.125.210937.699219.457031 1.386719.738281 2.0625.28125.675781.589844 1.335937.9375 1.980469.34375.644531.71875 1.273437 1.125 1.878906.40625.609375.839844 1.195312 1.304688 1.761718.464843.5625.953124 1.105469 1.472656 1.621094.515625.519532 1.058594 1.007813 1.621094 1.472656.566406.464844 1.152343.898438 1.761718 1.304688.605469.40625 1.234375.78125 1.878906 1.125.644532.347656 1.304688.660156 1.980469.9375.675781.28125 1.363281.527344 2.0625.738281.699219.210938 1.40625.390625 2.125.53125.71875.144531 1.441407.25 2.167969.324219.726562.070312 1.457031.105469 2.1875.105469s1.460938-.035157 2.1875-.105469c.726562-.074219 1.449219-.179688 2.167969-.324219.71875-.140625 1.425781-.320312 2.125-.53125.699219-.210937 1.386719-.457031 2.0625-.738281.675781-.277344 1.335937-.589844 1.980469-.9375.644531-.34375 1.273437-.71875 1.878906-1.125.609375-.40625 1.195312-.839844 1.761718-1.304688.5625-.464843 1.105469-.953124 1.621094-1.472656.519532-.515625 1.007813-1.058594 1.472656-1.621094.464844-.566406.898438-1.152343 1.304688-1.761718.40625-.605469.78125-1.234375 1.125-1.878906.347656-.644532.65625-1.304688.9375-1.980469s.527344-1.363281.738281-2.0625c.210938-.699219.390625-1.40625.53125-2.125.144531-.71875.25-1.4375.324219-2.167969.070312-.726562.105469-1.457031.105469-2.1875s-.035157-1.460938-.105469-2.1875c-.074219-.726562-.179688-1.449219-.324219-2.167969-.140625-.714843-.320312-1.425781-.53125-2.125-.210937-.699219-.457031-1.386719-.738281-2.0625-.28125-.675781-.589844-1.335937-.9375-1.980469-.34375-.644531-.71875-1.269531-1.125-1.878906s-.839844-1.195312-1.304688-1.761718c-.464843-.5625-.953124-1.105469-1.472656-1.621094-.515625-.515625-1.058594-1.007813-1.621094-1.472656-.566406-.460938-1.152343-.898438-1.761718-1.304688-.605469-.40625-1.234375-.78125-1.878906-1.125-.644532-.34375-1.304688-.65625-1.980469-.9375s-1.363281-.527344-2.0625-.738281c-.699219-.210938-1.40625-.390625-2.125-.53125-.71875-.144531-1.441407-.25-2.167969-.324219-.726562-.070312-1.457031-.105469-2.1875-.105469zm0 0" fill="#5eb1d4"/>
  <g clip-path="url(#a)">
    <path d="M123.421875 130.410156l7.597656 4.59375c1.199219.722656 2.675781-.351562 2.359375-1.71875l-2.019531-8.652344 6.714844-5.824218c1.058593-.917969.492187-2.660156-.902344-2.777344l-8.835937-.75-3.457032-8.167969c-.546875-1.289062-2.371094-1.289062-2.914062 0l-3.460938 8.167969-8.835937.75c-1.394531.117188-1.960938 1.859375-.902344 2.777344l6.714844 5.824218-2.019531 8.652344c-.316407 1.367188 1.164062 2.441406 2.359374 1.71875zm0 0" fill="#ececec"/>
  </g>
  <g clip-path="url(#b)">
    <path d="M251.058594 130.410156l7.597656 4.59375c1.199219.722656 2.679688-.351562 2.359375-1.71875L259 124.632812l6.714844-5.824218c1.058594-.917969.492187-2.660156-.902344-2.777344l-8.839844-.75-3.457031-8.167969c-.542969-1.289062-2.367187-1.289062-2.914063 0l-3.457031 8.167969-8.839843.75c-1.394532.117188-1.957032 1.859375-.898438 2.777344l6.710938 5.824218-2.015626 8.652344c-.316406 1.367188 1.160157 2.441406 2.359376 1.71875zm0 0" fill="#ececec"/>
  </g>
  <g clip-path="url(#c)">
    <path d="M156.222656 153.777344c-.550781 0-1.101562.027344-1.652344.082031-.550781.054687-1.097656.132813-1.636718.242187-.542969.109376-1.078125.242188-1.609375.402344-.527344.160156-1.046875.347656-1.558594.558594-.507813.210938-1.007813.445312-1.496094.707031-.488281.261719-.960937.542969-1.421875.851563-.457031.308594-.902344.636718-1.328125.984375-.425781.351562-.835937.722656-1.226562 1.113281-.390625.390625-.761719.800781-1.113281 1.226562-.351563.429688-.679688.871094-.984376 1.332032-.308593.457031-.59375.933594-.851562 1.417968-.261719.488282-.5.988282-.710938 1.5-.210937.507813-.394531 1.027344-.554687 1.558594-.164063.527344-.296875 1.0625-.40625 1.605469-.105469.542969-.1875 1.089844-.242187 1.636719-.054688.550781-.082032 1.101562-.082032 1.65625 0 .550781.027344 1.105468.082032 1.652344.054687.550781.136718 1.097656.242187 1.640624.109375.539063.242187 1.078126.40625 1.605469.160156.527344.34375 1.046875.554687 1.558594.210938.511719.449219 1.011719.710938 1.496094.257812.488281.542969.960937.851562 1.421875.304688.460937.632813.902344.984376 1.328125.351562.429687.722656.839843 1.113281 1.230469.390625.390624.800781.761718 1.226562 1.109374.425781.351563.871094.679688 1.328125.988282.460938.304687.933594.589844 1.421875.851562.488281.257813.988281.496094 1.496094.707032.511719.210937 1.03125.398437 1.558594.558593.53125.160157 1.066406.292969 1.609375.402344.539062.105469 1.085937.1875 1.636718.242187.550782.054688 1.101563.082032 1.652344.082032.554688 0 1.105469-.027344 1.65625-.082032.550782-.054687 1.097656-.136718 1.636719-.242187.542969-.109375 1.078125-.242187 1.609375-.402344.527344-.160156 1.046875-.347656 1.558594-.558593.507812-.210938 1.007812-.449219 1.496094-.707032.488281-.261718.960937-.546875 1.421874-.851562.457032-.308594.902344-.636719 1.328126-.988282.425781-.347656.835937-.71875 1.226562-1.109374.390625-.390626.761719-.800782 1.113281-1.230469.351563-.425781.679688-.867188.984375-1.328125.308594-.460938.59375-.933594.851563-1.421875.261719-.484375.5-.984375.710937-1.496094.210938-.511719.394532-1.03125.554688-1.558594.164062-.527343.296875-1.066406.402344-1.605469.109374-.542968.191406-1.089843.246093-1.640624.054688-.546876.078125-1.101563.078125-1.652344 0-.554688-.023437-1.105469-.078125-1.65625-.054687-.546875-.136719-1.09375-.246093-1.636719-.105469-.542969-.238282-1.078125-.402344-1.605469-.160156-.53125-.34375-1.050781-.554688-1.558594-.210937-.511718-.449218-1.011718-.710937-1.5-.257813-.484374-.542969-.960937-.851563-1.417968-.304687-.460938-.632812-.902344-.984375-1.332032-.351562-.425781-.722656-.835937-1.113281-1.226562-.390625-.390625-.800781-.761719-1.226562-1.113281-.425782-.347657-.871094-.675781-1.328126-.984375-.460937-.308594-.933593-.589844-1.421874-.851563-.488282-.261719-.988282-.496093-1.496094-.707031-.511719-.210938-1.03125-.398438-1.558594-.558594-.53125-.160156-1.066406-.292968-1.609375-.402344-.539063-.109374-1.085937-.1875-1.636719-.242187-.550781-.054687-1.101562-.082031-1.65625-.082031zm0 24.105468c-.472656 0-.941406-.046874-1.410156-.136718-.464844-.09375-.917969-.230469-1.355469-.414063-.4375-.179687-.855469-.402343-1.25-.667969-.394531-.261718-.761719-.5625-1.097656-.898437-.335937-.335937-.632813-.699219-.898437-1.097656-.261719-.394531-.484376-.808594-.667969-1.25-.183594-.4375-.320313-.890625-.410157-1.355469-.09375-.464844-.140624-.9375-.140624-1.410156 0-.476563.046874-.945313.140624-1.410156.089844-.46875.226563-.917969.410157-1.359376.183593-.4375.40625-.855468.667969-1.25.265624-.394531.5625-.757812.898437-1.09375.335937-.335937.703125-.636718 1.097656-.902343.394531-.261719.8125-.484375 1.25-.667969.4375-.179688.890625-.316406 1.355469-.410156.46875-.09375.9375-.140625 1.410156-.140625.476563 0 .945313.046875 1.414063.140625.464843.09375.917969.230468 1.355469.410156.4375.183594.855468.40625 1.25.667969.394531.265625.761718.566406 1.097656.902343.335937.335938.632812.699219.898437 1.09375.261719.394532.484375.8125.667969 1.25.183594.441407.320312.890626.410156 1.359376.09375.464843.140625.933593.140625 1.410156 0 .472656-.046875.945312-.140625 1.410156-.089844.464844-.226562.917969-.410156 1.355469-.183594.441406-.40625.855469-.667969 1.25-.265625.398437-.5625.761719-.898437 1.097656-.335938.335937-.703125.636719-1.097656.898437-.394532.265626-.8125.488282-1.25.667969-.4375.183594-.890626.320313-1.355469.414063-.46875.089844-.9375.136718-1.414063.136718zm0 0" fill="#ececec"/>
  </g>
  <g clip-path="url(#d)">
    <path d="M218.460938 153.777344c-.550782 0-1.101563.027344-1.652344.082031-.550782.054687-1.097656.132813-1.640625.242187-.539063.109376-1.074219.242188-1.605469.402344-.527344.160156-1.046875.347656-1.558594.558594-.511718.210938-1.007812.445312-1.496094.707031-.488281.261719-.960937.542969-1.421874.851563-.460938.308594-.902344.636718-1.328126.984375-.429687.351562-.835937.722656-1.230468 1.113281-.390625.390625-.757813.800781-1.109375 1.226562-.351563.429688-.679688.871094-.988281 1.332032-.304688.457031-.589844.933594-.851563 1.417968-.257813.488282-.496094.988282-.707031 1.5-.210938.507813-.398438 1.027344-.558594 1.558594-.160156.527344-.292969 1.0625-.402344 1.605469-.105468.542969-.1875 1.089844-.242187 1.636719-.054688.550781-.082031 1.101562-.082031 1.65625 0 .550781.027343 1.105468.082031 1.652344.054687.550781.136719 1.097656.242187 1.640624.109375.539063.242188 1.078126.402344 1.605469.160156.527344.347656 1.046875.558594 1.558594.210937.511719.449218 1.011719.707031 1.496094.261719.488281.546875.960937.851563 1.421875.308593.460937.636718.902344.988281 1.328125.351562.429687.71875.839843 1.109375 1.230469.394531.390624.800781.761718 1.230468 1.109374.425782.351563.867188.679688 1.328126.988282.460937.304687.933593.589844 1.421874.851562.488282.257813.984376.496094 1.496094.707032.511719.210937 1.03125.398437 1.558594.558593.53125.160157 1.066406.292969 1.605469.402344.542969.105469 1.089843.1875 1.640625.242187.550781.054688 1.101562.082032 1.652344.082032.554687 0 1.105468-.027344 1.65625-.082032.546874-.054687 1.09375-.136718 1.636718-.242187.542969-.109375 1.078125-.242187 1.605469-.402344.53125-.160156 1.050781-.347656 1.558594-.558593.511719-.210938 1.011719-.449219 1.5-.707032.484375-.261718.960937-.546875 1.417969-.851562.460937-.308594.902343-.636719 1.332031-.988282.425781-.347656.835937-.71875 1.226562-1.109374.390625-.390626.761719-.800782 1.113281-1.230469.347657-.425781.675782-.867188.984376-1.328125.308593-.460938.589843-.933594.851562-1.421875.261719-.484375.496094-.984375.707031-1.496094.210938-.511719.398438-1.03125.558594-1.558594.160156-.527343.296875-1.066406.402344-1.605469.109375-.542968.1875-1.089843.242187-1.640624.054688-.546876.082032-1.101563.082032-1.652344 0-.554688-.027344-1.105469-.082032-1.65625-.054687-.546875-.132812-1.09375-.242187-1.636719-.105469-.542969-.242188-1.078125-.402344-1.605469-.160156-.53125-.347656-1.050781-.558594-1.558594-.210937-.511718-.445312-1.011718-.707031-1.5-.261719-.484374-.542969-.960937-.851562-1.417968-.308594-.460938-.636719-.902344-.984376-1.332032-.351562-.425781-.722656-.835937-1.113281-1.226562-.390625-.390625-.800781-.761719-1.226562-1.113281-.429688-.347657-.871094-.675781-1.332031-.984375-.457032-.308594-.933594-.589844-1.417969-.851563-.488281-.261719-.988281-.496093-1.5-.707031-.507813-.210938-1.027344-.398438-1.558594-.558594-.527344-.160156-1.0625-.292968-1.605469-.402344-.542968-.109374-1.089844-.1875-1.636718-.242187-.550782-.054687-1.101563-.082031-1.65625-.082031zm0 24.105468c-.472657 0-.945313-.046874-1.410157-.136718-.464843-.09375-.917969-.230469-1.355469-.414063-.441406-.179687-.855468-.402343-1.25-.667969-.398437-.261718-.761718-.5625-1.097656-.898437-.335937-.335937-.636718-.699219-.898437-1.097656-.265625-.394531-.488281-.808594-.667969-1.25-.183594-.4375-.320312-.890625-.414062-1.355469-.089844-.464844-.136719-.9375-.136719-1.410156 0-.476563.046875-.945313.136719-1.410156.09375-.46875.230468-.917969.414062-1.359376.179688-.4375.402344-.855468.667969-1.25.261719-.394531.5625-.757812.898437-1.09375.335938-.335937.699219-.636718 1.097656-.902343.394532-.261719.808594-.484375 1.25-.667969.4375-.179688.890626-.316406 1.355469-.410156.464844-.09375.9375-.140625 1.410157-.140625.476562 0 .945312.046875 1.410156.140625.46875.09375.917968.230468 1.359375.410156.4375.183594.855469.40625 1.25.667969.394531.265625.757812.566406 1.09375.902343.335937.335938.636719.699219.902343 1.09375.261719.394532.484376.8125.667969 1.25.179688.441407.316407.890626.410157 1.359376.09375.464843.140624.933593.140624 1.410156 0 .472656-.046874.945312-.140624 1.410156-.09375.464844-.230469.917969-.410157 1.355469-.183593.441406-.40625.855469-.667969 1.25-.265624.398437-.566406.761719-.902343 1.097656-.335938.335937-.699219.636719-1.09375.898437-.394531.265626-.8125.488282-1.25.667969-.441407.183594-.890625.320313-1.359375.414063-.464844.089844-.933594.136718-1.410156.136718zm0 0" fill="#ececec"/>
  </g>
  <path d="M209.34375 206.195312c1.179688 0 2.359375.246094 3.539062.738282 4.621094 1.96875 6.78125 7.285156 4.816407 11.914062-5.160157 12.308594-17.105469 20.234375-30.429688 20.234375-13.320312 0-25.265625-7.925781-30.476562-20.234375-1.96875-4.628906.195312-9.992187 4.816406-11.914062 4.621094-1.96875 9.980469.199218 11.894531 4.824218 2.359375 5.515626 7.769532 9.109376 13.765625 9.109376 5.996094 0 11.355469-3.59375 13.714844-9.109376 1.425781-3.445312 4.820313-5.5625 8.359375-5.5625zm0 0M218.3125 193.632812c-12.570312 0-22.804688-10.277343-22.804688-22.910156 0-12.628906 10.234376-22.90625 22.804688-22.90625 12.574219 0 22.808594 10.277344 22.808594 22.90625 0 12.632813-10.234375 22.910156-22.808594 22.910156zm-61.386719 0c-12.574219 0-22.804687-10.277343-22.804687-22.910156 0-12.628906 10.230468-22.90625 22.804687-22.90625 12.570313 0 22.804688 10.277344 22.804688 22.90625 0 12.632813-10.234375 22.910156-22.804688 22.910156zm90.140625-26.34375h-2.425781c-1.683594-13.089843-12.84375-23.238281-26.328125-23.238281-12.382812 0-22.8125 8.5625-25.734375 20.105469-1.355469-1.105469-3.082031-1.765625-4.960937-1.765625-1.875 0-3.597657.660156-4.953126 1.761719-2.921874-11.539063-13.351562-20.101563-25.738281-20.101563-13.484375 0-24.644531 10.148438-26.328125 23.238281h-2.828125c-1.894531 0-3.425781 1.539063-3.425781 3.4375 0 1.898438 1.53125 3.4375 3.425781 3.4375h2.832031c1.683594 13.085938 12.84375 23.234376 26.324219 23.234376 14.644531 0 26.554688-11.96875 26.554688-26.675782 0-.136718-.007813-.273437-.011719-.414062h.011719c0-2.289063 1.855469-4.15625 4.136719-4.15625 2.289062 0 4.144531 1.867187 4.144531 4.15625h.011719c-.003907.140625-.011719.277344-.011719.414062 0 14.707032 11.910156 26.675782 26.550781 26.675782 13.484375 0 24.640625-10.148438 26.328125-23.234376h2.425781c1.890625 0 3.417969-1.539062 3.417969-3.4375 0-1.898437-1.527344-3.4375-3.417969-3.4375" fill="#ececec"/>
  <g clip-path="url(#e)">
    <path d="M218.3125 193.632812v-.675781c-6.101562 0-11.628906-2.492187-15.640625-6.519531-4.007813-4.03125-6.488281-9.585938-6.488281-15.714844 0-6.128906 2.480468-11.683594 6.488281-15.710937 4.011719-4.023438 9.539063-6.515625 15.640625-6.519531 6.105469.003906 11.632812 2.496093 15.644531 6.519531 4.007813 4.03125 6.488281 9.582031 6.488281 15.710937 0 6.128906-2.480468 11.683594-6.488281 15.714844-4.011719 4.027344-9.539062 6.519531-15.644531 6.519531v1.355469c12.949219-.003906 23.480469-10.582031 23.480469-23.589844 0-13.003906-10.53125-23.582031-23.480469-23.582031-12.945312 0-23.476562 10.578125-23.476562 23.582031 0 13.007813 10.53125 23.585938 23.476562 23.589844zm-61.386719 0v-.675781c-6.101562 0-11.632812-2.492187-15.640625-6.519531-4.007812-4.03125-6.488281-9.585938-6.488281-15.714844 0-6.128906 2.480469-11.683594 6.488281-15.710937 4.007813-4.023438 9.539063-6.515625 15.640625-6.519531 6.097657.003906 11.628907 2.496093 15.640625 6.519531 4.007813 4.03125 6.488282 9.582031 6.488282 15.710937 0 6.128906-2.480469 11.683594-6.488282 15.714844-4.011718 4.027344-9.542968 6.519531-15.640625 6.519531v1.355469c12.941407-.003906 23.476563-10.582031 23.480469-23.589844-.003906-13.003906-10.539062-23.582031-23.480469-23.582031-12.949219 0-23.476562 10.578125-23.480469 23.582031.003907 13.007813 10.53125 23.585938 23.480469 23.589844zm90.140625-26.34375v-.675781h-2.425781v.675781l.667969-.085937c-.863282-6.710937-4.15625-12.671875-8.960938-16.949219-4.800781-4.277344-11.121094-6.878906-18.035156-6.878906-6.347656 0-12.199219 2.195312-16.832031 5.867188-4.636719 3.675781-8.058594 8.828124-9.554688 14.746093l.652344.167969.425781-.527344c-1.472656-1.195312-3.347656-1.917968-5.386718-1.917968-2.035157 0-3.910157.71875-5.378907 1.917968l.425781.523438.652344-.167969c-1.496094-5.917969-4.921875-11.066406-9.554687-14.742187-4.632813-3.671876-10.484375-5.867188-16.835938-5.867188-6.910156 0-13.234375 2.601562-18.035156 6.878906-4.804687 4.277344-8.097656 10.238282-8.960937 16.949219l.667968.085937v-.675781h-2.828125c-2.265625 0-4.097656 1.839844-4.101562 4.113281.003906 2.273438 1.835937 4.113282 4.101562 4.113282h2.832031v-.675782l-.671874.085938c.867187 6.710938 4.160156 12.667969 8.960937 16.945312 4.804687 4.277344 11.125 6.882813 18.035156 6.882813 15.015625-.003906 27.226563-12.273437 27.230469-27.355469 0-.167968-.011719-.304687-.011719-.421875l-.675781.007813v.679687h.6875v-.679687c0-.957032.386719-1.824219 1.011719-2.457032.632812-.632812 1.492187-1.023437 2.449219-1.023437.957031 0 1.824218.390625 2.453124 1.023437.628907.632813 1.015626 1.5 1.015626 2.457032v.679687h.6875v-.679687l-.675782-.007813c0 .117188-.011718.253907-.011718.421875.003906 15.082032 12.214843 27.351563 27.226562 27.355469 6.910156 0 13.230469-2.605469 18.035156-6.882813 4.800782-4.277343 8.097656-10.234374 8.960938-16.945312l-.667969-.085938v.675782h2.425781c1.128906.003906 2.15625-.460938 2.894532-1.203125.738281-.742188 1.195312-1.777344 1.195312-2.910157 0-2.269531-1.828125-4.113281-4.089844-4.113281v1.355469c.761719 0 1.441406.304688 1.9375.804688.496094.503906.804688 1.1875.804688 1.953124 0 .765626-.308594 1.449219-.804688 1.953126-.496094.5-1.175781.804687-1.9375.804687h-3.019531l-.074219.59375c-.824218 6.375-3.953125 12.035156-8.519531 16.105469-4.570313 4.066406-10.570313 6.539062-17.140625 6.539062-7.132812 0-13.597656-2.914062-18.289062-7.625-4.6875-4.710937-7.585938-11.207031-7.585938-18.375 0-.109375.007812-.242187.007812-.40625l.011719-.683594h-.695312v.675782h.675781c-.003906-2.664063-2.160156-4.832032-4.820312-4.835938-2.65625.003906-4.808594 2.171875-4.8125 4.835938h.675781v-.675782h-.695313l.011719.683594c0 .164063.007813.296875.007813.40625 0 7.167969-2.898438 13.664063-7.585938 18.375-4.6875 4.710938-11.15625 7.625-18.292969 7.625-6.570312 0-12.570312-2.472656-17.140625-6.539062-4.566406-4.070313-7.695312-9.730469-8.515625-16.105469l-.078125-.59375h-3.421875c-.765625 0-1.449219-.304687-1.945312-.804687-.5-.503907-.804688-1.1875-.804688-1.953126 0-.765624.304688-1.449218.804688-1.949218.496093-.5 1.179687-.808594 1.945312-.808594h3.421875l.078125-.59375c.820313-6.375 3.949219-12.035156 8.515625-16.105469 4.570313-4.070312 10.570313-6.539062 17.140625-6.539062 6.039063 0 11.59375 2.085937 16 5.574219 4.40625 3.496093 7.660157 8.394531 9.082031 14.015624l.261719 1.023438.820313-.664062c1.238281-1.007813 2.8125-1.613282 4.527344-1.613282 1.71875 0 3.296874.605469 4.535156 1.617188l.820312.664062.257813-1.023437c1.425781-5.625 4.679687-10.523438 9.085937-14.015625 4.40625-3.492188 9.960938-5.578125 15.996094-5.578125 6.574219 0 12.574219 2.46875 17.140625 6.539062 4.570313 4.070313 7.699219 9.730469 8.519531 16.105469l.074219.59375h3.019531v-.679688" fill="#0d2630"/>
  </g>
</svg>
